<?xml version="1.0" standalone="no"?>
<!DOCTYPE svg PUBLIC "-//W3C//DTD SVG 20010904//EN"
 "http://www.w3.org/TR/2001/REC-SVG-20010904/DTD/svg10.dtd">
<svg version="1.0" xmlns="http://www.w3.org/2000/svg"
 width="2816.000000pt" height="1536.000000pt" viewBox="0 0 2816.000000 1536.000000"
 preserveAspectRatio="xMidYMid meet">

<g transform="translate(0.000000,1536.000000) scale(0.100000,-0.100000)"
fill="#000000" stroke="none">
<path d="M22102 8152 l3 -1704 362 -3 c275 -2 363 0 366 9 3 7 5 327 6 711 1
416 6 715 12 736 31 120 111 219 217 271 64 32 70 33 192 33 121 0 128 -1 191
-32 95 -47 141 -101 174 -204 l27 -84 4 -610 c2 -335 4 -660 4 -721 l0 -111
365 0 365 -1 0 793 c0 767 -1 796 -21 896 -42 206 -114 343 -249 473 -92 88
-182 142 -326 194 -215 79 -509 65 -722 -34 -66 -30 -202 -124 -210 -146 -18
-43 -22 66 -24 612 l-3 621 -368 2 -367 3 2 -1704z"/>
<path d="M12407 9753 c-2 -5 -4 -750 -3 -1658 l1 -1650 383 -3 382 -3 0 656 0
655 765 0 c421 0 765 3 765 8 1 4 2 145 4 315 l2 307 -768 0 -768 0 1 370 0
370 809 0 810 0 0 320 0 320 -1189 0 c-655 0 -1192 -3 -1194 -7z"/>
<path d="M16334 8836 c-184 -35 -291 -86 -406 -192 -20 -19 -39 -34 -41 -34
-3 0 -5 39 -6 87 -1 48 -4 89 -6 91 -2 2 -172 5 -377 6 l-373 1 0 -1175 0
-1175 378 -3 377 -4 0 687 c0 661 1 690 21 767 19 78 44 136 71 168 29 34 111
93 165 118 53 25 68 27 173 27 114 -1 116 -1 221 -47 l107 -46 24 36 c45 67
181 256 275 380 51 67 93 128 93 135 0 15 -155 107 -220 129 -149 53 -338 70
-476 44z"/>
<path d="M18035 8829 c-385 -67 -677 -261 -865 -573 -121 -201 -158 -332 -167
-586 -6 -193 7 -294 63 -460 60 -181 145 -311 297 -457 98 -94 168 -143 302
-211 172 -87 455 -152 665 -152 203 0 519 71 660 147 99 54 276 181 304 218
l25 33 -205 201 -204 202 -68 -50 c-94 -71 -226 -136 -316 -156 -107 -24 -346
-17 -427 11 -140 50 -279 165 -333 277 -20 40 -36 81 -38 92 -3 20 3 20 851
22 469 1 855 4 858 6 9 10 33 230 33 312 0 237 -71 471 -203 672 -98 149 -270
291 -443 366 -228 100 -524 132 -789 86z m452 -579 c164 -63 246 -163 279
-336 l6 -34 -522 0 -522 0 7 38 c12 67 48 126 125 202 126 127 251 173 442
165 88 -4 121 -10 185 -35z"/>
<path d="M20526 8835 c-135 -22 -231 -51 -343 -105 -186 -89 -334 -262 -389
-456 -22 -79 -25 -102 -20 -204 5 -122 18 -174 61 -261 53 -104 105 -168 178
-216 155 -103 213 -126 622 -242 209 -60 230 -69 279 -111 88 -77 59 -196 -59
-246 -100 -41 -329 -22 -484 41 -102 42 -222 113 -299 178 -31 26 -59 47 -62
47 -3 -1 -50 -51 -105 -113 -55 -61 -146 -158 -202 -213 l-101 -102 81 -79
c178 -173 434 -287 772 -343 251 -42 574 -13 785 72 153 60 265 147 356 275
74 104 93 161 106 322 11 130 11 144 -10 227 -32 129 -80 224 -154 300 -142
148 -309 224 -723 329 -251 63 -315 105 -315 203 0 52 26 84 92 112 45 20 70
23 168 23 73 0 141 -6 185 -17 94 -22 215 -84 299 -152 38 -30 76 -54 85 -52
16 3 169 159 315 322 64 71 77 92 70 105 -6 9 -60 56 -120 104 -153 125 -304
196 -509 242 -101 23 -442 29 -559 10z"/>
<path d="M9131 8144 c0 -11 3 -14 6 -6 3 7 2 16 -1 19 -3 4 -6 -2 -5 -13z"/>
<path d="M7176 6855 c4 -8 8 -15 10 -15 2 0 4 7 4 15 0 8 -4 15 -10 15 -5 0
-7 -7 -4 -15z"/>
</g>
</svg>
